<svg width="17" height="17" viewBox="0 0 17 17" fill="none" xmlns="http://www.w3.org/2000/svg">
<path d="M2.83333 17C2.0463 17 1.37731 16.7521 0.826389 16.2563C0.275463 15.7604 0 15.1583 0 14.45V11.9H2.83333V0L4.25 1.275L5.66667 0L7.08333 1.275L8.5 0L9.91667 1.275L11.3333 0L12.75 1.275L14.1667 0L15.5833 1.275L17 0V14.45C17 15.1583 16.7245 15.7604 16.1736 16.2563C15.6227 16.7521 14.9537 17 14.1667 17H2.83333ZM14.1667 15.3C14.4343 15.3 14.6586 15.2185 14.8396 15.0556C15.0206 14.8927 15.1111 14.6908 15.1111 14.45V2.55H4.72222V11.9H13.2222V14.45C13.2222 14.6908 13.3127 14.8927 13.4938 15.0556C13.6748 15.2185 13.8991 15.3 14.1667 15.3ZM5.66667 5.95V4.25H11.3333V5.95H5.66667ZM5.66667 8.5V6.8H11.3333V8.5H5.66667ZM13.2222 5.95C12.9546 5.95 12.7303 5.86854 12.5493 5.70563C12.3683 5.54271 12.2778 5.34083 12.2778 5.1C12.2778 4.85917 12.3683 4.65729 12.5493 4.49438C12.7303 4.33146 12.9546 4.25 13.2222 4.25C13.4898 4.25 13.7141 4.33146 13.8951 4.49438C14.0762 4.65729 14.1667 4.85917 14.1667 5.1C14.1667 5.34083 14.0762 5.54271 13.8951 5.70563C13.7141 5.86854 13.4898 5.95 13.2222 5.95ZM13.2222 8.5C12.9546 8.5 12.7303 8.41854 12.5493 8.25562C12.3683 8.09271 12.2778 7.89083 12.2778 7.65C12.2778 7.40917 12.3683 7.20729 12.5493 7.04438C12.7303 6.88146 12.9546 6.8 13.2222 6.8C13.4898 6.8 13.7141 6.88146 13.8951 7.04438C14.0762 7.20729 14.1667 7.40917 14.1667 7.65C14.1667 7.89083 14.0762 8.09271 13.8951 8.25562C13.7141 8.41854 13.4898 8.5 13.2222 8.5Z" fill="#EA580C"/>
</svg>
