<svg width="17" height="17" viewBox="0 0 17 17" fill="none" xmlns="http://www.w3.org/2000/svg">
<path d="M16.4985 8.143L8.8485 0.493C8.5425 0.187 8.1175 0 7.65 0H1.7C0.765 0 0 0.765 0 1.7V7.65C0 8.1175 0.187 8.5425 0.5015 8.857L8.1515 16.507C8.4575 16.813 8.8825 17 9.35 17C9.8175 17 10.2425 16.813 10.5485 16.4985L16.4985 10.5485C16.813 10.2425 17 9.8175 17 9.35C17 8.8825 16.8045 8.449 16.4985 8.143ZM2.975 4.25C2.2695 4.25 1.7 3.6805 1.7 2.975C1.7 2.2695 2.2695 1.7 2.975 1.7C3.6805 1.7 4.25 2.2695 4.25 2.975C4.25 3.6805 3.6805 4.25 2.975 4.25Z" fill="#EA580C"/>
</svg>
