<svg width="17" height="17" viewBox="0 0 17 17" fill="none" xmlns="http://www.w3.org/2000/svg">
<path d="M2.55 17C2.0825 17 1.68243 16.8337 1.3498 16.501C1.01717 16.1684 0.850567 15.7681 0.85 15.3V5.71625C0.595 5.56042 0.389583 5.35868 0.23375 5.11105C0.0779167 4.86342 0 4.5764 0 4.25V1.7C0 1.2325 0.1666 0.832433 0.4998 0.4998C0.833 0.167167 1.23307 0.000566667 1.7 0H15.3C15.7675 0 16.1678 0.1666 16.501 0.4998C16.8342 0.833 17.0006 1.23307 17 1.7V4.25C17 4.57583 16.9221 4.86285 16.7662 5.11105C16.6104 5.35925 16.405 5.5607 16.15 5.7154V15.3C16.15 15.7675 15.9837 16.1678 15.651 16.501C15.3184 16.8342 14.9181 17.0006 14.45 17H2.55ZM1.7 4.25H15.3V1.7H1.7V4.25ZM5.95 10.2H11.05V8.5H5.95V10.2Z" fill="#64748B"/>
</svg>
