<svg width="17" height="12" viewBox="0 0 17 12" fill="none" xmlns="http://www.w3.org/2000/svg">
<path d="M11.5909 5.14286C12.8736 5.14286 13.9014 3.99429 13.9014 2.57143C13.9014 1.14857 12.8736 0 11.5909 0C10.3082 0 9.27273 1.14857 9.27273 2.57143C9.27273 3.99429 10.3082 5.14286 11.5909 5.14286ZM5.40909 5.14286C6.69182 5.14286 7.71955 3.99429 7.71955 2.57143C7.71955 1.14857 6.69182 0 5.40909 0C4.12636 0 3.09091 1.14857 3.09091 2.57143C3.09091 3.99429 4.12636 5.14286 5.40909 5.14286ZM5.40909 6.85714C3.60864 6.85714 0 7.86 0 9.85714V12H10.8182V9.85714C10.8182 7.86 7.20955 6.85714 5.40909 6.85714ZM11.5909 6.85714C11.3668 6.85714 11.1118 6.87429 10.8414 6.9C11.7377 7.62 12.3636 8.58857 12.3636 9.85714V12H17V9.85714C17 7.86 13.3914 6.85714 11.5909 6.85714Z" fill="#64748B"/>
</svg>
